<?xml version="1.0" encoding="utf-8"?>
<svg viewBox="4.815298557281494 3.7574245929718018 166.43701171875 56.74400329589844" width="166.43701171875" height="56.74400329589844" xmlns="http://www.w3.org/2000/svg">
  <g id="Layer_1" transform="matrix(1, 0, 0, 1, -11.068702697753908, -67.17557525634766)">
    <g>
      <path d="M55.11,107.857 C53.401,105.985 50.504,105.863 48.637,107.574 L38.738,116.637 C37.34,117.93 35.526,118.592 33.628,118.5 C31.734,118.42 29.979,117.602 28.704,116.204 C26.058,113.32 26.252,108.81 29.141,106.17 L32.818,102.798 L35.887,106.152 C37.596,108.017 40.493,108.142 42.36,106.434 C44.225,104.727 44.353,101.826 42.645,99.957 L39.578,96.616 L42.126,94.266 C47.265,89.564 47.616,81.561 42.907,76.418 C38.207,71.284 30.2,70.933 25.061,75.642 C19.929,80.352 19.576,88.351 24.284,93.494 L26.627,96.044 L22.948,99.41 C16.337,105.467 15.884,115.78 21.948,122.395 C24.885,125.596 28.888,127.47 33.228,127.661 C33.718,127.677 34.193,127.677 34.675,127.661 C38.488,127.488 42.081,126.009 44.931,123.403 L54.829,114.33 C56.697,112.617 56.82,109.72 55.11,107.857 M31.254,82.398 C31.875,81.824 32.658,81.531 33.441,81.492 C34.431,81.451 35.432,81.824 36.151,82.613 C37.444,84.021 37.35,86.213 35.936,87.508 L33.371,89.841 L31.039,87.295 C29.755,85.891 29.842,83.691 31.254,82.398" fill="#E85323"/>
      <path d="M72.212,91.489 C69.568,91.489 68.447,93.217 68.447,95.83 L68.447,96.406 L75.943,96.406 L75.943,95.797 C75.943,93.184 74.992,91.489 72.212,91.489 M78.825,97.593 C78.825,98.306 78.315,98.747 77.706,98.747 L68.447,98.747 L68.447,99.663 C68.447,102.342 69.634,104.105 72.346,104.105 C73.805,104.105 74.721,103.866 75.365,103.63 C76.146,103.357 76.552,103.017 77.095,103.017 C77.774,103.017 78.216,103.527 78.216,104.239 C78.216,104.919 77.501,105.493 76.484,105.901 C75.298,106.377 73.67,106.614 72.178,106.614 C67.293,106.614 65.497,103.29 65.497,99.423 L65.497,96.271 C65.497,92.438 67.43,89.08 72.178,89.08 C77.095,89.08 78.825,92.267 78.825,96.271 z" fill="#2B2B2A"/>
      <path d="M90.238,106.41 L89.221,106.41 C84.543,106.41 83.32,103.495 83.32,99.051 L83.32,91.828 L82.336,91.828 C81.624,91.828 81.048,91.25 81.048,90.573 C81.048,89.86 81.624,89.284 82.336,89.284 L83.32,89.284 L83.32,85.791 C83.32,84.977 83.965,84.3 84.812,84.3 C85.626,84.3 86.271,84.977 86.271,85.791 L86.271,89.284 L89.424,89.284 C90.137,89.284 90.715,89.86 90.715,90.573 C90.715,91.25 90.137,91.828 89.424,91.828 L86.271,91.828 L86.306,99.018 C86.306,102.407 86.849,103.698 89.527,103.698 L90.238,103.698 C90.984,103.698 91.562,104.309 91.562,105.053 C91.562,105.799 90.984,106.41 90.238,106.41" fill="#2B2B2A"/>
      <path d="M106.421,106.614 C105.604,106.614 104.925,105.969 104.925,105.12 L104.925,95.557 C104.925,93.421 104.353,91.896 101.74,91.896 C99.805,91.896 98.415,92.743 97.601,94.032 L97.601,105.12 C97.601,105.969 96.957,106.614 96.143,106.614 C95.328,106.614 94.651,105.969 94.651,105.12 L94.651,93.692 C94.651,92.337 94.243,91.929 93.598,91.556 C93.227,91.353 93.022,91.013 93.022,90.574 C93.022,89.691 93.634,89.283 94.481,89.283 C95.024,89.283 95.77,89.555 96.312,89.996 C96.652,90.336 96.922,90.709 97.058,91.115 C98.245,89.826 99.975,89.08 102.387,89.08 C106.657,89.08 107.912,91.726 107.912,95.287 L107.945,105.12 C107.945,105.969 107.268,106.614 106.421,106.614" fill="#2B2B2A"/>
      <path d="M118.609,91.489 C115.965,91.489 114.844,93.217 114.844,95.83 L114.844,96.406 L122.338,96.406 L122.338,95.797 C122.338,93.184 121.389,91.489 118.609,91.489 M125.222,97.593 C125.222,98.306 124.714,98.747 124.103,98.747 L114.844,98.747 L114.844,99.663 C114.844,102.342 116.031,104.105 118.745,104.105 C120.202,104.105 121.117,103.866 121.762,103.63 C122.545,103.357 122.949,103.017 123.494,103.017 C124.169,103.017 124.611,103.527 124.611,104.239 C124.611,104.919 123.898,105.493 122.883,105.901 C121.693,106.377 120.065,106.614 118.573,106.614 C113.692,106.614 111.894,103.29 111.894,99.423 L111.894,96.271 C111.894,92.438 113.827,89.08 118.573,89.08 C123.494,89.08 125.222,92.267 125.222,96.271 z" fill="#2B2B2A"/>
      <path d="M136.635,106.41 L135.618,106.41 C130.937,106.41 129.717,103.495 129.717,99.051 L129.717,91.828 L128.733,91.828 C128.02,91.828 127.444,91.25 127.444,90.573 C127.444,89.86 128.02,89.284 128.733,89.284 L129.717,89.284 L129.717,85.791 C129.717,84.977 130.361,84.3 131.209,84.3 C132.021,84.3 132.669,84.977 132.669,85.791 L132.669,89.284 L135.823,89.284 C136.531,89.284 137.111,89.86 137.111,90.573 C137.111,91.25 136.531,91.828 135.823,91.828 L132.669,91.828 L132.703,99.018 C132.703,102.407 133.245,103.698 135.922,103.698 L136.635,103.698 C137.379,103.698 137.959,104.309 137.959,105.053 C137.959,105.799 137.379,106.41 136.635,106.41" fill="#2B2B2A"/>
      <path d="M146.237,91.489 C143.592,91.489 142.469,93.217 142.469,95.83 L142.469,96.406 L149.967,96.406 L149.967,95.797 C149.967,93.184 149.018,91.489 146.237,91.489 M152.851,97.593 C152.851,98.306 152.339,98.747 151.73,98.747 L142.469,98.747 L142.469,99.663 C142.469,102.342 143.66,104.105 146.37,104.105 C147.827,104.105 148.742,103.866 149.391,103.63 C150.17,103.357 150.578,103.017 151.119,103.017 C151.798,103.017 152.239,103.527 152.239,104.239 C152.239,104.919 151.527,105.493 150.509,105.901 C149.322,106.377 147.694,106.614 146.202,106.614 C141.317,106.614 139.523,103.29 139.523,99.423 L139.523,96.271 C139.523,92.438 141.456,89.08 146.202,89.08 C151.119,89.08 152.851,92.267 152.851,96.271 z" fill="#2B2B2A"/>
      <path d="M165.866,92.201 C165.29,92.201 164.985,91.962 163.798,91.962 C162.373,91.962 160.576,92.404 160,95.016 L160,105.12 C160,105.97 159.356,106.614 158.544,106.614 C157.728,106.614 157.048,105.97 157.048,105.12 L157.048,93.692 C157.048,92.337 156.64,91.929 155.996,91.556 C155.627,91.351 155.42,91.013 155.42,90.574 C155.42,89.758 155.962,89.284 156.915,89.284 C158.2,89.284 159.219,90.334 159.627,91.386 C161.084,89.352 163.085,89.114 164.306,89.114 C165.698,89.114 167.291,89.555 167.291,90.709 C167.291,91.523 166.781,92.201 165.866,92.201" fill="#2B2B2A"/>
      <path d="M177.844,98.747 L174.282,98.747 C171.434,98.747 170.686,99.999 170.686,101.391 L170.686,101.629 C170.686,103.088 171.502,104.308 174.179,104.308 C176.452,104.308 177.844,103.154 177.844,100.745 z M180.825,106.614 C180.284,106.614 179.743,106.444 179.3,106.104 C178.931,105.8 178.588,105.359 178.42,104.882 C177.164,106.274 175.163,106.614 173.671,106.614 C169.501,106.614 167.734,104.41 167.734,101.594 L167.734,101.356 C167.734,98.542 169.67,96.439 174.011,96.439 L177.844,96.439 L177.844,95.592 C177.844,92.913 177.199,91.556 174.351,91.556 C173.162,91.556 172.382,91.726 171.738,91.997 C170.99,92.302 170.617,92.573 170.145,92.573 C169.43,92.573 168.925,92.031 168.925,91.386 C168.925,90.676 169.602,90.131 170.553,89.758 C171.773,89.25 173.263,89.08 174.552,89.08 C179.369,89.08 180.796,91.422 180.796,95.862 L180.796,102.203 C180.796,103.56 181.1,103.966 181.741,104.308 C182.116,104.544 182.321,104.882 182.321,105.325 C182.321,106.206 181.71,106.614 180.825,106.614" fill="#2B2B2A"/>
    </g>
  </g>
</svg>